#!OML:ASF F:\VICON\USERDATA\INSTALL\rory3\rory3.ASF
:FULLY-SPECIFIED
:DEGREES
81
root 1.34755 16.9978 -3.10929 5.6483 -3.06256 3.37296
lowerback 23.0649 1.10467 -3.16274
upperback 4.41422 0.552878 -1.25669
thorax -8.02681 0.322033 0.273896
lowerneck -11.5125 -1.29685 -7.04542
upperneck -6.50209 -0.799068 6.16911
head -0.0280104 -0.202765 3.21716
rclavicle 3.91357e-016 5.45415e-015
rhumerus -22.7088 8.6783 -80.4228
rradius 51.6721
rwrist 13.992
rhand -37.0878 2.58393
rfingers 7.12502
rthumb -10.1593 -27.1508
lclavicle 3.91357e-016 5.45415e-015
lhumerus -24.4039 -4.06908 79.6374
lradius 40.6494
lwrist 5.34407
lhand -22.966 23.0565
lfingers 7.12502
lthumb 3.47596 53.0079
rfemur -38.8522 0.809104 12.473
rtibia 62.5097
rfoot -29.7129 -9.02574
rtoes -9.26481
lfemur -36.438 7.33612 -25.6722
ltibia 59.7845
lfoot -26.4415 0.125083
ltoes -0.752302
82
root 1.3444 16.9373 -3.12149 5.78901 -2.9587 3.42205
lowerback 23.2688 1.05865 -3.18668
upperback 4.50628 0.48041 -1.2639
thorax -8.02962 0.287313 0.299592
lowerneck -11.8272 -1.29146 -6.99753
upperneck -6.68385 -0.772035 6.13813
head -0.0365884 -0.184977 3.19891
rclavicle -1.8077e-015 1.86361e-015
rhumerus -22.5986 8.65392 -80.3431
rradius 52.0713
rwrist 13.9567
rhand -37.1142 2.811
rfingers 7.12502
rthumb -10.1848 -26.9225
lclavicle -1.8077e-015 1.86361e-015
lhumerus -24.3137 -4.41912 79.564
lradius 40.9224
lwrist 5.47199
lhand -23.1171 23.0336
lfingers 7.12502
lthumb 3.32998 52.9873
rfemur -39.5519 0.523112 12.4596
rtibia 63.4229
rfoot -29.8574 -9.24501
rtoes -9.42712
lfemur -37.1503 7.21022 -25.7355
ltibia 60.7011
lfoot -26.7619 0.0962443
ltoes -0.66575
83
root 1.33777 16.8682 -3.13318 5.95554 -2.92816 3.44077
lowerback 23.4273 1.07669 -3.19014
upperback 4.56844 0.496354 -1.27597
thorax -8.04388 0.294464 0.28241
lowerneck -11.8922 -1.35947 -7.01549
upperneck -7.02422 -0.844843 6.18902
head -0.131125 -0.218219 3.21723
rclavicle 3.78312e-015 -1.81267e-014
rhumerus -22.6138 8.53774 -80.2671
rradius 52.5065
rwrist 13.9051
rhand -37.1375 2.65063
rfingers 7.12502
rthumb -10.2073 -27.0817
lclavicle 3.78312e-015 -1.81267e-014
lhumerus -24.2709 -4.88857 79.5155
lradius 41.2264
lwrist 5.71547
lhand -23.0985 23.1845
lfingers 7.12502
lthumb 3.34794 53.1379
rfemur -40.333 0.340436 12.4816
rtibia 64.3772
rfoot -30.0706 -9.39538
rtoes -9.30849
lfemur -37.8973 7.12766 -25.7574
ltibia 61.6532
lfoot -27.1339 0.0461439
ltoes -0.612506
84
root 1.33229 16.7993 -3.14386 6.05105 -2.87802 3.57262
lowerback 23.7366 1.07218 -3.2825
upperback 4.58472 0.448625 -1.33702
thorax -8.1855 0.274628 0.278968
lowerneck -11.8307 -1.36577 -6.92921
upperneck -7.39375 -0.855915 6.17053
head -0.262374 -0.225296 3.1939
rclavicle 4.84538e-015 7.05686e-015
rhumerus -22.7076 8.51363 -80.2727
rradius 52.9411
rwrist 13.6936
rhand -37.2417 2.6575
rfingers 7.12502
rthumb -10.3078 -27.0699
lclavicle 4.84538e-015 7.05686e-015
lhumerus -24.2826 -5.24395 79.4262
lradius 41.3914
lwrist 5.82691
lhand -23.2744 22.8157
lfingers 7.12502
lthumb 3.17807 52.7718
rfemur -41.0481 0.132909 12.3599
rtibia 65.3816
rfoot -30.2987 -9.41657
rtoes -9.38498
lfemur -38.5346 7.04201 -25.9166
ltibia 62.5754
lfoot -27.4823 0.14194
ltoes -1.1199
85
root 1.33158 16.7347 -3.14792 6.10665 -2.80545 3.79085
lowerback 24.0507 1.03115 -3.39854
upperback 4.61256 0.344674 -1.42505
thorax -8.31471 0.22838 0.276833
lowerneck -11.9489 -1.33825 -6.8754
upperneck -7.62045 -0.810888 6.16045
head -0.320278 -0.201369 3.18226
rclavicle 3.37934e-015 -8.19987e-016
rhumerus -22.7667 8.61851 -80.273
rradius 53.3316
rwrist 13.4609
rhand -37.3891 2.55335
rfingers 7.12502
rthumb -10.45 -27.1669
lclavicle 3.37934e-015 -8.19987e-016
lhumerus -24.3753 -5.62522 79.3406
lradius 41.6535
lwrist 5.91726
lhand -23.472 22.6289
lfingers 7.12502
lthumb 2.98731 52.5877
rfemur -41.6633 -0.151634 12.1306
rtibia 66.4044
rfoot -30.5606 -9.29218
rtoes -9.30248
lfemur -39.0594 6.88181 -26.1789
ltibia 63.445
lfoot -27.8789 0.176331
ltoes -1.14807
86
root 1.33297 16.6641 -3.15222 6.17558 -2.63326 4.05521
lowerback 24.3172 0.963266 -3.47673
upperback 4.65653 0.218465 -1.50786
thorax -8.40015 0.170479 0.266825
lowerneck -12.0125 -1.34307 -7.01924
upperneck -7.86815 -0.784908 6.28545
head -0.390708 -0.181851 3.25507
rclavicle -3.90115e-015 -5.71506e-016
rhumerus -22.8374 8.67343 -80.1993
rradius 53.6886
rwrist 13.3717
rhand -37.4715 2.07324
rfingers 7.12502
rthumb -10.5295 -27.643
lclavicle -3.90115e-015 -5.71506e-016
lhumerus -24.5237 -6.07875 79.2969
lradius 42.0805
lwrist 6.07675
lhand -23.6011 22.7504
lfingers 7.12502
lthumb 2.86262 52.7109
rfemur -42.2595 -0.572538 11.8457
rtibia 67.4499
rfoot -30.9529 -8.97363
rtoes -9.08306
lfemur -39.6103 6.62908 -26.4989
ltibia 64.3041
lfoot -28.2808 0.185279
ltoes -0.840014
87
root 1.33165 16.5946 -3.15945 6.18971 -2.45572 4.31854
lowerback 24.6926 0.920576 -3.58883
upperback 4.6731 0.112473 -1.55797
thorax -8.57276 0.124838 0.305324
lowerneck -11.722 -1.37347 -7.19482
upperneck -8.32051 -0.807226 6.36726
head -0.585046 -0.190395 3.31791
rclavicle -2.2736e-015 1.16289e-014
rhumerus -23.047 8.74115 -80.098
rradius 54.0754
rwrist 13.2361
rhand -37.6734 2.12322
rfingers 7.12502
rthumb -10.7242 -27.5831
lclavicle -2.2736e-015 1.16289e-014
lhumerus -24.7064 -6.53999 79.2983
lradius 42.4563
lwrist 6.15698
lhand -23.66 22.7328
lfingers 7.12502
lthumb 2.80571 52.694
rfemur -42.748 -0.91438 11.5554
rtibia 68.452
rfoot -31.4536 -8.58734
rtoes -8.52738
lfemur -40.0945 6.37537 -26.8012
ltibia 65.1554
lfoot -28.6819 0.290368
ltoes -0.943686
88
root 1.3258 16.5282 -3.16436 6.18134 -2.31961 4.38611
lowerback 25.0568 0.873827 -3.60532
upperback 4.74297 0.0314895 -1.56494
thorax -8.68028 0.0878783 0.330293
lowerneck -11.6841 -1.42681 -7.15982
upperneck -8.61472 -0.87835 6.29952
head -0.68369 -0.22665 3.28613
rclavicle 5.26158e-015 -9.79014e-015
rhumerus -23.0839 8.80861 -80.0539
rradius 54.3375
rwrist 13.0524
rhand -37.8572 2.3894
rfingers 7.12502
rthumb -10.9015 -27.3076
lclavicle 5.26158e-015 -9.79014e-015
lhumerus -24.7588 -6.88021 79.2201
lradius 42.7504
lwrist 6.20688
lhand -23.5208 22.6051
lfingers 7.12502
lthumb 2.94011 52.5646
rfemur -43.213 -1.11991 11.5097
rtibia 69.3769
rfoot -31.8033 -8.55862
rtoes -8.47848
lfemur -40.5723 6.19746 -26.8671
ltibia 66.0253
lfoot -29.1021 0.446551
ltoes -1.30846
89
root 1.31688 16.4595 -3.17163 6.21254 -2.17402 4.34493
lowerback 25.3617 0.813652 -3.57453
upperback 4.84727 -0.0465603 -1.53596
thorax -8.71814 0.0503826 0.368415
lowerneck -11.8583 -1.45787 -7.14869
upperneck -8.80362 -0.903403 6.31571
head -0.714752 -0.236123 3.28951
rclavicle -4.89507e-015 -7.28049e-015
rhumerus -22.9654 8.80452 -80.0128
rradius 54.5253
rwrist 12.9296
rhand -38.0666 2.58422
rfingers 7.12502
rthumb -11.1035 -27.102
lclavicle -4.89507e-015 -7.28049e-015
lhumerus -24.7378 -7.25292 79.1168
lradius 43.0279
lwrist 6.40253
lhand -23.5426 22.3898
lfingers 7.12502
lthumb 2.91912 52.3495
rfemur -43.8004 -1.31359 11.6309
rtibia 70.2823
rfoot -32.0482 -8.8802
rtoes -9.05097
lfemur -41.1694 6.05478 -26.8031
ltibia 66.9288
lfoot -29.3349 0.638515
ltoes -1.86031
90
root 1.30774 16.3893 -3.18047 6.32445 -1.88839 4.37379
lowerback 25.6481 0.702285 -3.52715
upperback 4.8938 -0.188053 -1.52623
thorax -8.80883 -0.0160777 0.396382
lowerneck -11.8639 -1.4486 -7.17565
upperneck -9.14029 -0.875678 6.34365
head -0.826551 -0.219633 3.30732
rclavicle 1.54058e-015 -5.73991e-015
rhumerus -22.9997 8.76248 -79.9712
rradius 54.7696
rwrist 12.8803
rhand -38.4194 2.3452
rfingers 7.12502
rthumb -11.4437 -27.3225
lclavicle 1.54058e-015 -5.73991e-015
lhumerus -24.8206 -7.747 79.0487
lradius 43.3559
lwrist 6.649
lhand -23.9097 22.4352
lfingers 7.12502
lthumb 2.56457 52.3995
rfemur -44.4317 -1.66844 11.6908
rtibia 71.2229
rfoot -32.334 -9.09366
rtoes -9.39963
lfemur -41.8644 5.7828 -26.8317
ltibia 67.8364
lfoot -29.4118 0.912485
ltoes -2.80975
91
root 1.30001 16.3144 -3.19043 6.54088 -1.49624 4.44727
lowerback 25.8957 0.560896 -3.45295
upperback 4.9148 -0.359374 -1.52116
thorax -8.90735 -0.0966254 0.414395
lowerneck -11.9827 -1.46471 -7.17678
upperneck -9.46937 -0.879307 6.32568
head -0.915311 -0.217928 3.30296
rclavicle -2.70844e-015 -1.71079e-014
rhumerus -23.0814 8.71199 -79.888
rradius 55.0389
rwrist 12.8437
rhand -38.7721 2.18081
rfingers 7.12502
rthumb -11.7839 -27.4677
lclavicle -2.70844e-015 -1.71079e-014
lhumerus -24.8641 -8.34402 79.0318
lradius 43.6615
lwrist 7.02411
lhand -24.3063 22.5646
lfingers 7.12502
lthumb 2.18158 52.5332
rfemur -45.1635 -2.18893 11.7167
rtibia 72.2049
rfoot -32.6446 -9.21154
rtoes -9.56742
lfemur -42.6837 5.37052 -26.9186
ltibia 68.7692
lfoot -29.5664 1.08198
ltoes -3.20735
